<svg width="17" height="17" viewBox="0 0 17 17" fill="none" xmlns="http://www.w3.org/2000/svg">
<path d="M8.71643 0.671875C8.71643 0.578125 8.73205 0.492188 8.7633 0.414062C8.79455 0.335938 8.84143 0.265625 8.90393 0.203125C8.96643 0.140625 9.03934 0.0911455 9.12268 0.0546875C9.20601 0.0182285 9.29455 0 9.3883 0C9.8258 0 10.2581 0.041666 10.6852 0.125C11.1227 0.21875 11.5419 0.348958 11.943 0.515625C12.344 0.682292 12.7268 0.885417 13.0914 1.125C13.456 1.36458 13.7946 1.64062 14.1071 1.95312C14.4196 2.26562 14.6956 2.60417 14.9352 2.96875C15.1748 3.33333 15.3779 3.71615 15.5446 4.11719C15.7112 4.51823 15.8414 4.9375 15.9352 5.375C16.0185 5.80208 16.0602 6.23438 16.0602 6.67188C16.0602 6.76562 16.0419 6.85417 16.0055 6.9375C15.969 7.02083 15.9196 7.09375 15.8571 7.15625C15.7946 7.21875 15.7242 7.26562 15.6461 7.29688C15.568 7.32812 15.4821 7.34375 15.3883 7.34375C15.305 7.34375 15.2216 7.32812 15.1383 7.29688C15.055 7.26562 14.9821 7.21875 14.9196 7.15625C14.8571 7.09375 14.8102 7.02083 14.7789 6.9375C14.7477 6.85417 14.7321 6.76562 14.7321 6.67188C14.7216 5.96354 14.581 5.28385 14.3102 4.63281C14.0393 3.98177 13.6539 3.40625 13.1539 2.90625C12.6539 2.40625 12.0784 2.02083 11.4274 1.75C10.7763 1.47917 10.0966 1.34375 9.3883 1.34375C9.29455 1.34375 9.20601 1.32552 9.12268 1.28906C9.03934 1.2526 8.96643 1.20312 8.90393 1.14062C8.84143 1.07812 8.79455 1.00521 8.7633 0.921875C8.73205 0.838542 8.71643 0.755208 8.71643 0.671875ZM9.3883 4C9.74247 4 10.081 4.07031 10.4039 4.21094C10.7268 4.35156 11.0185 4.54688 11.2789 4.79688C11.5289 5.04688 11.7216 5.33333 11.8571 5.65625C11.9925 5.97917 12.0602 6.31771 12.0602 6.67188C12.0602 6.76562 12.0758 6.85417 12.1071 6.9375C12.1383 7.02083 12.1852 7.09375 12.2477 7.15625C12.3102 7.21875 12.3831 7.26562 12.4664 7.29688C12.5498 7.32812 12.6331 7.34375 12.7164 7.34375C12.8102 7.34375 12.8987 7.32812 12.9821 7.29688C13.0654 7.26562 13.1383 7.21875 13.2008 7.15625C13.2633 7.09375 13.3102 7.02083 13.3414 6.9375C13.3727 6.85417 13.3883 6.76562 13.3883 6.67188C13.3883 6.14062 13.2867 5.63021 13.0836 5.14062C12.8805 4.65104 12.5914 4.21875 12.2164 3.84375C11.8414 3.46875 11.4091 3.17969 10.9196 2.97656C10.43 2.77344 9.91955 2.67188 9.3883 2.67188C9.29455 2.67188 9.20601 2.6901 9.12268 2.72656C9.03934 2.76302 8.96643 2.8125 8.90393 2.875C8.84143 2.9375 8.79455 3.00781 8.7633 3.08594C8.73205 3.16406 8.71643 3.25 8.71643 3.34375C8.71643 3.42708 8.73205 3.51042 8.7633 3.59375C8.79455 3.67708 8.84143 3.75 8.90393 3.8125C8.96643 3.875 9.03934 3.92188 9.12268 3.95312C9.20601 3.98438 9.29455 4 9.3883 4ZM15.4508 11.1719C15.6487 11.3698 15.7998 11.5964 15.9039 11.8516C16.0081 12.1068 16.0602 12.3698 16.0602 12.6406C16.0602 12.9115 16.0081 13.1745 15.9039 13.4297C15.7998 13.6849 15.6487 13.9115 15.4508 14.1094L14.8414 14.7969C13.4768 16.1094 11.7581 16.401 9.68518 15.6719C7.61226 14.9323 5.73466 13.724 4.05236 12.0469C2.37007 10.3698 1.15393 8.49479 0.403926 6.42188C-0.335657 4.33854 -0.0596154 2.61458 1.23205 1.25L1.99768 0.578125C2.18518 0.390625 2.40653 0.247396 2.66174 0.148438C2.91695 0.0494785 3.17476 0 3.43518 0C3.70601 0 3.96643 0.052084 4.21643 0.15625C4.46643 0.260417 4.69038 0.411458 4.8883 0.609375C4.89872 0.619792 5.10966 0.893229 5.52111 1.42969C5.93257 1.96615 6.1383 2.23438 6.1383 2.23438C6.3258 2.42188 6.46903 2.64062 6.56799 2.89062C6.66695 3.14062 6.71643 3.40104 6.71643 3.67188C6.71643 3.93229 6.66434 4.1875 6.56018 4.4375C6.45601 4.6875 6.31538 4.90625 6.1383 5.09375L5.35705 6.0625C5.5758 6.58333 5.84143 7.07812 6.15393 7.54688C6.46643 8.01562 6.82059 8.44792 7.21643 8.84375C7.61226 9.23958 8.04455 9.59375 8.5133 9.90625C8.98205 10.2188 9.47684 10.4844 9.99768 10.7031L10.9664 9.92188C11.1643 9.74479 11.3857 9.60417 11.6305 9.5C11.8753 9.39583 12.1331 9.34375 12.4039 9.34375C12.6643 9.34375 12.9196 9.39323 13.1696 9.49219C13.4196 9.59115 13.6383 9.73438 13.8258 9.92188C13.8258 9.92188 14.094 10.1276 14.6305 10.5391C15.1669 10.9505 15.4404 11.1615 15.4508 11.1719ZM14.5289 12.1562C14.5289 12.1562 14.2633 11.9505 13.7321 11.5391C13.2008 11.1276 12.93 10.9167 12.9196 10.9062C12.8466 10.8333 12.7659 10.7786 12.6774 10.7422C12.5888 10.7057 12.4977 10.6875 12.4039 10.6875C12.2998 10.6875 12.2034 10.7057 12.1149 10.7422C12.0263 10.7786 11.9508 10.8333 11.8883 10.9062C11.8779 10.9062 11.6461 11.0859 11.193 11.4453C10.7399 11.8047 10.5133 11.9844 10.5133 11.9844C10.4716 12.026 10.4248 12.0573 10.3727 12.0781C10.3206 12.099 10.2633 12.1146 10.2008 12.125C10.1487 12.1354 10.094 12.138 10.0367 12.1328C9.97945 12.1276 9.91955 12.1146 9.85705 12.0938C9.19038 11.8438 8.55497 11.5234 7.9508 11.1328C7.34663 10.7422 6.78934 10.2969 6.27893 9.79688C5.76851 9.28646 5.32059 8.72917 4.93518 8.125C4.54976 7.52083 4.22684 6.88542 3.96643 6.21875C3.94559 6.15625 3.93257 6.09635 3.92736 6.03906C3.92216 5.98177 3.92476 5.92188 3.93518 5.85938C3.94559 5.80729 3.96122 5.7526 3.98205 5.69531C4.00288 5.63802 4.03413 5.58854 4.0758 5.54688C4.0758 5.54688 4.25549 5.32031 4.61486 4.86719C4.97424 4.41406 5.15913 4.18229 5.16955 4.17188C5.23205 4.10938 5.28153 4.03385 5.31799 3.94531C5.35445 3.85677 5.37268 3.76042 5.37268 3.65625C5.37268 3.5625 5.35445 3.47135 5.31799 3.38281C5.28153 3.29427 5.23205 3.21354 5.16955 3.14062C5.15913 3.13021 4.94559 2.85938 4.52893 2.32812C4.11226 1.79688 3.90393 1.53125 3.90393 1.53125C3.84143 1.46875 3.76591 1.41927 3.67736 1.38281C3.58882 1.34635 3.49768 1.33333 3.40393 1.34375C3.31018 1.34375 3.21903 1.36198 3.13049 1.39844C3.04195 1.4349 2.96643 1.48438 2.90393 1.54688L2.1383 2.21875C1.19038 3.35417 1.08622 4.77604 1.8258 6.48438C2.55497 8.19271 3.64611 9.7526 5.09924 11.1641C6.55236 12.5755 8.12788 13.6146 9.8258 14.2812C11.5341 14.9583 12.8831 14.8281 13.8727 13.8906L14.4821 13.1875C14.555 13.125 14.6123 13.0495 14.6539 12.9609C14.6956 12.8724 14.7164 12.7812 14.7164 12.6875C14.7268 12.5833 14.7164 12.487 14.6852 12.3984C14.6539 12.3099 14.6018 12.2292 14.5289 12.1562Z" fill="white"/>
</svg>
