<svg width="20" height="20" viewBox="0 0 20 20" fill="none" xmlns="http://www.w3.org/2000/svg">
<g clip-path="url(#clip0_1_164)">
<path d="M17.9616 3.33334C17.8858 3.32553 17.8095 3.32553 17.7338 3.33334H2.17823C2.07854 3.33487 1.9795 3.34982 1.88379 3.37778L9.91157 11.3722L17.9616 3.33334Z" fill="#FFB71A"/>
<path d="M18.7833 4.10556L10.6945 12.1611C10.4863 12.3681 10.2047 12.4842 9.91112 12.4842C9.61758 12.4842 9.33597 12.3681 9.12779 12.1611L1.11112 4.16667C1.08648 4.25725 1.07341 4.35058 1.07224 4.44445V15.5556C1.07224 15.8502 1.1893 16.1329 1.39767 16.3412C1.60605 16.5496 1.88866 16.6667 2.18335 16.6667H17.7389C18.0336 16.6667 18.3162 16.5496 18.5246 16.3412C18.733 16.1329 18.85 15.8502 18.85 15.5556V4.44445C18.8456 4.3287 18.8231 4.21435 18.7833 4.10556ZM2.94446 15.5556H2.17224V14.7611L6.21112 10.7556L6.99446 11.5389L2.94446 15.5556ZM17.7278 15.5556H16.95L12.9 11.5389L13.6833 10.7556L17.7222 14.7611L17.7278 15.5556Z" fill="#FFB71A"/>
</g>
<defs>
<clipPath id="clip0_1_164">
<rect width="20" height="20" fill="white"/>
</clipPath>
</defs>
</svg>
