<svg width="13" height="13" viewBox="0 0 13 13" fill="none" xmlns="http://www.w3.org/2000/svg">
<path d="M10.6746 1.62501H2.35461C2.26159 1.62458 2.16941 1.64258 2.08339 1.67798C1.99736 1.71338 1.91921 1.76547 1.85343 1.83125C1.78766 1.89702 1.73556 1.97518 1.70017 2.0612C1.66477 2.14722 1.64676 2.2394 1.64719 2.33242V10.6676C1.64719 11.0446 1.96136 11.375 2.35461 11.375H10.6421C10.7352 11.3755 10.8274 11.3576 10.9135 11.3222C10.9996 11.2868 11.0778 11.2347 11.1436 11.169C11.2095 11.1032 11.2616 11.025 11.297 10.9389C11.3325 10.8529 11.3505 10.7607 11.3501 10.6676V2.31672C11.382 1.93972 11.0673 1.62501 10.6746 1.62501ZM4.52507 9.91251H3.09453V5.27313H4.52561L4.52507 9.91251ZM3.80194 4.62855C3.69234 4.62912 3.5837 4.60795 3.48233 4.56625C3.38096 4.52456 3.28887 4.46317 3.21139 4.38563C3.13391 4.3081 3.07258 4.21597 3.03095 4.11458C2.98932 4.01318 2.96821 3.90453 2.96886 3.79492C2.96886 3.33938 3.34586 2.96184 3.80194 2.96184C4.25803 2.96184 4.63611 3.33938 4.63611 3.79492C4.63611 4.25047 4.28944 4.62855 3.80194 4.62855ZM9.95094 9.91251H8.51986V7.66351C8.51986 7.12888 8.50415 6.42147 7.76532 6.42147C7.01024 6.42147 6.90028 7.01892 6.90028 7.61638V9.91251H5.46919V5.27313H6.86886V5.91772H6.88457C7.08878 5.54072 7.5454 5.16317 8.25282 5.16317C9.71532 5.16317 9.98236 6.10676 9.98236 7.39647V9.91251H9.95094Z" fill="#A0A1A6"/>
</svg>
