<svg width="20" height="20" viewBox="0 0 20 20" fill="none" xmlns="http://www.w3.org/2000/svg">
<path d="M18.3025 15.7125C18.1912 16.1907 17.9288 16.6202 17.5542 16.9375C17.1359 17.3629 16.6367 17.7002 16.0859 17.9295C15.5352 18.1588 14.9441 18.2754 14.3475 18.2725H14.0492C12.8109 18.208 11.5972 17.9016 10.4767 17.3708C10.205 17.2433 9.94083 17.1242 9.62667 16.9792C8.31337 16.2375 7.10798 15.3192 6.04416 14.25C4.66129 12.953 3.52809 11.4134 2.70083 9.7075C2.2454 8.77687 1.93862 7.78062 1.79166 6.755C1.58635 5.68625 1.70774 4.58043 2.14 3.58167C2.40888 3.12824 2.73799 2.71335 3.11833 2.34833C3.29206 2.15882 3.50214 2.00619 3.73607 1.89953C3.97 1.79287 4.22299 1.73437 4.48 1.7275C4.76024 1.75712 5.03175 1.84241 5.27859 1.97835C5.52544 2.1143 5.74265 2.29816 5.9175 2.51917C6.30917 2.9525 6.7675 3.36917 7.18417 3.81083L7.72083 4.33917C8.0375 4.61667 8.23333 5.0075 8.265 5.4275C8.26583 5.81417 8.12333 6.18667 7.865 6.47417C7.70232 6.67577 7.52931 6.8688 7.34667 7.0525L7.1675 7.24C7.06315 7.33696 6.98174 7.45595 6.92916 7.58833C6.88583 7.71667 6.87083 7.85333 6.8875 7.98833C7.02417 8.35833 7.23833 8.695 7.51667 8.975C7.95 9.56167 8.36667 10.0725 8.835 10.6767C9.64272 11.6086 10.6003 12.3992 11.6683 13.0158C11.7708 13.0992 11.8933 13.155 12.025 13.1775C12.1417 13.195 12.2592 13.1775 12.365 13.1258C12.6895 12.9521 12.9782 12.7186 13.2158 12.4375C13.5158 12.0675 13.9508 11.8325 14.4242 11.7817C14.6514 11.7825 14.8761 11.8289 15.0851 11.9181C15.294 12.0072 15.483 12.1374 15.6408 12.3008C15.8353 12.4686 16.0194 12.6472 16.1933 12.8367L16.4483 13.1092L16.7125 13.3642C16.8733 13.5258 17.0267 13.6708 17.1792 13.8408C17.4569 14.0797 17.7153 14.3378 17.9542 14.615C18.1983 14.9267 18.3217 15.3167 18.3025 15.7125Z" fill="#FFB71A"/>
</svg>
