<svg width="12" height="12" viewBox="0 0 12 12" fill="none" xmlns="http://www.w3.org/2000/svg">
<path d="M5.71289 2.76758C7.3125 2.76758 8.63281 4.08789 8.63281 5.6875C8.63281 7.3125 7.3125 8.60742 5.71289 8.60742C4.08789 8.60742 2.79297 7.3125 2.79297 5.6875C2.79297 4.08789 4.08789 2.76758 5.71289 2.76758ZM5.71289 7.5918C6.75391 7.5918 7.5918 6.75391 7.5918 5.6875C7.5918 4.64648 6.75391 3.80859 5.71289 3.80859C4.64648 3.80859 3.80859 4.64648 3.80859 5.6875C3.80859 6.75391 4.67188 7.5918 5.71289 7.5918ZM9.41992 2.66602C9.41992 3.04688 9.11523 3.35156 8.73438 3.35156C8.35352 3.35156 8.04883 3.04688 8.04883 2.66602C8.04883 2.28516 8.35352 1.98047 8.73438 1.98047C9.11523 1.98047 9.41992 2.28516 9.41992 2.66602ZM11.3496 3.35156C11.4004 4.29102 11.4004 7.10938 11.3496 8.04883C11.2988 8.96289 11.0957 9.75 10.4355 10.4355C9.77539 11.0957 8.96289 11.2988 8.04883 11.3496C7.10938 11.4004 4.29102 11.4004 3.35156 11.3496C2.4375 11.2988 1.65039 11.0957 0.964844 10.4355C0.304688 9.75 0.101562 8.96289 0.0507812 8.04883C0 7.10938 0 4.29102 0.0507812 3.35156C0.101562 2.4375 0.304688 1.625 0.964844 0.964844C1.65039 0.304688 2.4375 0.101562 3.35156 0.0507812C4.29102 0 7.10938 0 8.04883 0.0507812C8.96289 0.101562 9.77539 0.304688 10.4355 0.964844C11.0957 1.625 11.2988 2.4375 11.3496 3.35156ZM10.1309 9.03906C10.4355 8.30273 10.3594 6.52539 10.3594 5.6875C10.3594 4.875 10.4355 3.09766 10.1309 2.33594C9.92773 1.85352 9.54688 1.44727 9.06445 1.26953C8.30273 0.964844 6.52539 1.04102 5.71289 1.04102C4.875 1.04102 3.09766 0.964844 2.36133 1.26953C1.85352 1.47266 1.47266 1.85352 1.26953 2.33594C0.964844 3.09766 1.04102 4.875 1.04102 5.6875C1.04102 6.52539 0.964844 8.30273 1.26953 9.03906C1.47266 9.54688 1.85352 9.92773 2.36133 10.1309C3.09766 10.4355 4.875 10.3594 5.71289 10.3594C6.52539 10.3594 8.30273 10.4355 9.06445 10.1309C9.54688 9.92773 9.95312 9.54688 10.1309 9.03906Z" fill="#A0A1A6"/>
</svg>
